<svg version="1.1" id="Layer_1" xmlns="http://www.w3.org/2000/svg"
	xmlns:xlink="http://www.w3.org/1999/xlink" x="0px" y="0px"
	width="100%" viewBox="0 0 751 742" enable-background="new 0 0 751 742" xml:space="preserve">

<path fill="#0D78BD" opacity="1.000000" stroke="none" 
	d="
M402.324860,718.667236 
	C393.298248,718.807678 384.624512,718.736145 375.491821,718.759888 
	C366.592102,718.256775 358.142639,717.760559 349.712067,717.042847 
	C306.403168,713.355713 264.715179,703.710205 226.334808,682.527039 
	C208.584717,672.730225 190.373810,663.482788 173.759735,651.981506 
	C149.920090,635.478088 131.098007,613.329163 112.446281,591.343018 
	C79.517197,552.527039 56.438908,508.510925 44.450371,458.908539 
	C37.185734,428.851227 34.256046,398.337494 34.779213,367.398773 
	C35.639717,316.510345 46.344723,267.810028 67.077583,221.434860 
	C83.297279,185.154678 106.426842,153.487686 134.594101,125.556808 
	C183.943756,76.621269 242.664993,44.568993 310.445190,29.376348 
	C342.586670,22.171988 375.189148,19.479542 408.107635,22.122711 
	C456.315582,25.993540 501.723389,39.424477 544.322266,62.334633 
	C551.798584,66.355446 559.172791,70.584480 566.782227,74.335930 
	C592.873352,87.198830 612.828369,107.565834 632.631470,128.066528 
	C661.232666,157.675247 684.409180,191.125809 701.503174,228.580261 
	C713.276123,254.376022 720.912964,281.543610 725.994324,309.439270 
	C730.669922,335.107666 731.863892,360.994232 730.918884,386.996277 
	C728.399963,456.308807 706.573425,519.019714 665.631104,574.934021 
	C648.600830,598.191895 631.313782,621.512573 607.808533,638.789001 
	C590.660339,651.392944 572.578125,662.746216 554.711670,674.348145 
	C527.422180,692.069275 496.524231,700.902100 465.750214,710.064453 
	C446.754272,715.720154 427.316010,717.563354 407.651917,718.074890 
	C405.991669,718.118042 404.335724,718.324585 402.324860,718.667236 
M215.488907,183.957520 
	C218.583527,182.079468 221.581543,178.871170 224.795578,178.637756 
	C229.518311,178.294769 234.610199,179.512329 239.104340,181.222549 
	C240.985794,181.938538 241.873093,185.558823 242.972748,187.968079 
	C244.559433,191.444336 245.517075,195.267365 247.466080,198.507523 
	C253.450272,208.455963 257.312439,218.853821 255.984619,230.692429 
	C255.956100,230.946884 256.281738,231.241043 256.759308,232.061646 
	C264.255188,231.671249 272.034454,230.877670 279.799896,230.995514 
	C285.154297,231.076767 288.956238,229.407333 292.130310,225.178223 
	C299.457001,215.416214 309.196747,213.128738 320.968353,215.317123 
	C336.975098,218.292831 353.153717,220.335983 369.226227,222.976501 
	C371.002106,223.268250 372.830627,224.576950 374.181915,225.882645 
	C379.812927,231.323837 385.088562,237.146103 390.893311,242.386871 
	C392.861786,244.164078 396.003571,245.542252 398.613617,245.549622 
	C408.947632,245.578857 418.781372,247.379028 428.220917,251.625565 
	C431.078094,252.910904 432.486481,254.687164 433.155426,257.811371 
	C434.442535,263.822998 436.038025,269.805908 438.079865,275.598297 
	C438.787659,277.606262 440.912323,279.546173 442.880859,280.599396 
	C449.477631,284.128815 456.370544,287.100311 463.014832,290.546143 
	C478.512665,298.583588 493.937317,306.762238 509.369812,314.924957 
	C510.367249,315.452545 511.350708,316.193420 512.050110,317.067566 
	C517.346008,323.686646 520.139282,331.137299 519.490784,339.742371 
	C518.646057,350.952301 513.313904,360.274689 505.938324,368.065552 
	C498.800568,375.605255 495.429718,383.711731 493.812347,394.095184 
	C490.877411,412.937225 482.334259,428.392578 460.327606,430.557526 
	C459.999634,430.589813 459.680420,430.712372 459.357300,430.793549 
	C452.865753,432.423920 447.836060,435.654999 445.374023,442.343658 
	C444.000763,446.074463 441.926727,449.553619 440.095032,453.108337 
	C432.307953,468.220703 422.549133,481.543030 408.819244,492.120026 
	C394.848450,502.882660 381.839355,514.890930 368.352905,526.287109 
	C365.408020,528.775635 363.932068,531.645569 363.347382,535.578735 
	C362.076508,544.127686 359.877075,552.536804 358.541199,561.078857 
	C358.088654,563.972778 358.429413,567.372864 359.557953,570.058228 
	C362.603058,577.304199 365.453827,584.483887 364.959930,592.864380 
	C355.514679,592.864380 346.231018,593.137024 336.983154,592.682129 
	C334.518677,592.560913 331.762909,590.634460 329.832245,588.806641 
	C323.500458,582.812012 318.975159,575.383423 317.844147,566.796082 
	C316.614807,557.462158 315.874084,547.863708 316.633057,538.519775 
	C317.540466,527.348206 317.383514,516.811829 312.794159,506.283600 
	C310.909760,501.960632 309.933960,496.121063 311.195221,491.733154 
	C318.261597,467.149170 318.510101,442.078796 318.006744,416.880646 
	C317.614319,397.235626 317.861542,396.802002 300.423523,387.515961 
	C286.420563,380.059143 276.609985,369.288879 269.441254,355.373535 
	C264.802155,346.368439 259.599915,337.542542 253.646729,329.366882 
	C250.076401,324.463715 247.972733,319.867859 248.809113,313.923126 
	C248.993546,312.612244 249.015900,311.249146 248.896957,309.929565 
	C247.848572,298.296967 249.631302,287.847687 260.361969,280.798981 
	C261.820099,279.841187 263.230164,278.181061 263.756989,276.553101 
	C265.307037,271.763458 267.447021,266.824829 267.440002,261.947296 
	C267.428131,253.712448 266.224640,253.186905 257.952209,253.185638 
	C255.785828,253.185303 253.584229,252.935623 251.459991,253.234818 
	C246.183090,253.978119 242.347198,251.969116 238.714996,248.184586 
	C230.844162,239.983612 222.177292,232.776093 211.710541,227.888840 
	C200.253326,222.539093 188.112564,222.800171 175.955566,222.791092 
	C167.035950,222.784424 159.059845,220.458725 151.913254,214.685974 
	C147.706802,211.288177 142.592117,208.961639 137.736755,206.440552 
	C134.894806,204.964935 132.504883,205.491470 130.817810,208.808655 
	C121.771271,226.596207 111.847580,243.977615 103.619278,262.130432 
	C94.908432,281.347839 88.019936,301.367523 86.088570,322.648773 
	C83.524567,350.900879 83.226753,379.202637 85.138023,407.500610 
	C85.797829,417.269562 86.064507,427.286560 88.530411,436.658875 
	C92.026321,449.945953 96.905815,462.936401 102.039665,475.713867 
	C129.215912,543.352051 172.950134,596.969482 237.107208,632.732544 
	C251.597122,640.809692 266.837616,647.653198 282.125092,654.139587 
	C289.857758,657.420532 298.698517,658.351562 305.583191,651.646667 
	C309.437561,647.892944 313.425446,646.614502 318.496552,646.921143 
	C321.129486,647.080322 323.883057,646.046936 326.444977,646.441956 
	C339.673523,648.481445 346.988495,640.200623 354.071716,631.208923 
	C357.469025,626.896240 360.950287,622.610046 364.778076,618.687012 
	C368.761749,614.604248 373.785400,611.702332 379.587952,613.690552 
	C385.307281,615.650085 386.272736,621.361694 386.591614,626.482788 
	C387.066650,634.110779 386.711029,641.788696 386.771332,649.444885 
	C386.827759,656.608276 390.571381,660.719910 397.583832,662.137939 
	C406.547577,663.950684 414.545563,661.172974 422.688873,657.971130 
	C427.540222,656.063660 432.787506,654.770447 437.967682,654.189392 
	C444.725494,653.431396 451.666412,654.211182 458.397400,653.328796 
	C470.401184,651.755188 482.326782,649.542480 494.244415,647.373535 
	C499.890411,646.345947 506.025940,645.911926 510.947937,643.323303 
	C567.564392,613.546570 612.354492,571.241028 645.736328,516.521057 
	C654.738831,501.764038 659.115051,486.459412 660.208923,469.531494 
	C661.271790,453.084564 663.518738,436.870850 672.938721,422.434540 
	C676.305237,417.275391 678.911987,410.994476 679.743713,404.934387 
	C681.623535,391.236816 681.000977,377.457855 678.475891,363.726257 
	C675.867798,349.543274 674.150696,335.198059 671.844116,320.956146 
	C671.555237,319.172455 670.322327,317.338074 669.062317,315.948334 
	C660.813904,306.850494 650.265198,300.920532 639.165161,296.416382 
	C626.711426,291.362946 616.912415,283.152100 608.034119,273.583801 
	C594.601746,259.107452 583.600464,243.207428 580.544739,223.046936 
	C579.051819,213.196945 577.734497,203.318649 576.112610,193.490326 
	C574.447266,183.398651 574.921753,173.668716 579.390747,164.250137 
	C584.554626,153.366928 582.880310,146.289246 573.155945,139.045639 
	C566.754944,134.277664 559.779419,130.285583 553.327026,125.581406 
	C518.909729,100.489151 480.309784,85.357430 438.592102,78.254868 
	C417.789978,74.713242 424.750549,72.361275 406.879913,86.437225 
	C403.428406,89.155846 398.754150,91.005615 394.386810,91.752350 
	C380.153809,94.185928 365.748138,95.606483 351.510590,98.017288 
	C337.178040,100.444183 323.586700,105.753159 315.764618,118.527504 
	C310.417603,127.259750 303.716003,131.976456 294.341431,134.116806 
	C293.700317,134.263199 293.115784,134.642410 292.481018,134.834244 
	C288.274017,136.105804 285.597412,138.929703 284.672729,143.147720 
	C283.465118,148.656509 282.630249,154.245972 281.490326,159.770889 
	C279.789307,168.015045 271.492279,170.936340 265.236542,165.254807 
	C262.324646,162.610153 259.977722,159.240463 257.803833,155.918579 
	C256.057739,153.250351 254.481400,152.628677 251.263153,153.577179 
	C242.191406,156.250931 233.069687,159.118500 223.758499,160.521408 
	C212.945129,162.150650 207.337921,169.330460 202.826508,177.753128 
	C200.282532,182.502670 200.196823,188.096405 201.700928,194.598526 
	C206.577148,190.855606 210.763397,187.642319 215.488907,183.957520 
z"/>

</svg>